<svg xmlns="http://www.w3.org/2000/svg" viewBox="0 0 103.78 104.22"><defs><style>.cls-1{fill:#ffe2c0;}.cls-2{opacity:0.05;}.cls-3{fill:#fff;opacity:0.5;}</style></defs><title>2</title><g id="Layer_2" data-name="Layer 2"><g id="Layer_1-2" data-name="Layer 1"><rect class="cls-1" width="100" height="100" rx="10" ry="10"/><path class="cls-2" d="M60.14,100H10A10,10,0,0,1,0,90V26.49C0,30.32.81,100,60.14,100Z"/><path class="cls-3" d="M100,10V38.47C98.79,10.6,86.21,2.19,76,0H90A10,10,0,0,1,100,10Z"/><path class="cls-2" d="M98.89,100c-11,9.5-87.5,0-87.5,0H90a10,10,0,0,0,10-10V14.86C102.49,37.28,107.62,92.46,98.89,100Z"/><g id="_2" data-name="2"><rect x="16.67" y="16.67" width="16.67" height="16.67" rx="8.33" ry="8.33"/><rect x="66.67" y="66.67" width="16.67" height="16.67" rx="8.33" ry="8.33"/></g></g></g></svg>