<svg xmlns="http://www.w3.org/2000/svg" xmlns:xlink="http://www.w3.org/1999/xlink" viewBox="0 0 202.57 201.95"><defs><style>.cls-1,.cls-4,.cls-5{opacity:0.5;}.cls-2{fill:#ffe9ca;}.cls-3{fill:#ffd2a6;}.cls-4{fill:#fff;}.cls-5{fill:#ffd19f;stroke-miterlimit:10;stroke:url(#linear-gradient);}</style><linearGradient id="linear-gradient" x1="56.13" y1="126.58" x2="150.11" y2="72.32" gradientUnits="userSpaceOnUse"><stop offset="0" stop-color="#fff"/><stop offset="1"/></linearGradient></defs><title>Asset 2</title><g id="Layer_2" data-name="Layer 2"><g id="Layer_1-2" data-name="Layer 1"><path class="cls-1" d="M200.57,102.81c0,49.08-36.06,89.82-83.42,97.73A100.86,100.86,0,0,1,100.29,202C44.9,202,0,157.57,0,102.81A97.83,97.83,0,0,1,17.8,46.42,100.43,100.43,0,0,1,99.74,3.68h.55c50.2,0,91.79,36.46,99.12,84.08A97,97,0,0,1,200.57,102.81Z"/><path class="cls-2" d="M202.57,99.45A99.45,99.45,0,1,1,102.58,0h.54a99.42,99.42,0,0,1,99.45,99.45Z"/><path class="cls-3" d="M119.84,197.49A99.45,99.45,0,0,1,21.32,42.89C11.85,84,6.69,170.4,119.84,197.49Z"/><path class="cls-4" d="M201.42,84.34C174.27,32.6,132.26,9.9,102.58,0h.54A99.45,99.45,0,0,1,201.42,84.34Z"/><circle class="cls-5" cx="103.12" cy="99.45" r="53.75"/></g></g></svg>